<svg width="701" height="696" viewBox="0 0 701 696" fill="none" xmlns="http://www.w3.org/2000/svg">
<path d="M701 350C701 257.174 664.125 168.15 598.487 102.513C532.85 36.8749 443.826 -3.16818e-06 351 -3.16818e-06C262.867 -0.0813924 177.948 33.0896 113.205 92.8869C48.4617 152.684 8.66121 234.706 1.7535 322.567C-5.1542 410.429 21.3394 497.663 75.9423 566.843C130.545 636.023 209.237 682.057 296.3 695.75V451.15H207.5V350H296.35V272.9C296.35 185.2 348.6 136.7 428.55 136.7C466.85 136.7 506.9 143.55 506.9 143.55V229.7H462.75C419.25 229.7 405.75 256.7 405.75 284.35V350H502.8L487.3 451.15H405.7V695.75C488.025 682.713 562.997 640.729 617.13 577.348C671.262 513.968 701.002 433.351 701 350V350Z" fill="white"/>
</svg>
