<svg width="800" height="800" viewBox="0 0 800 800" fill="none" xmlns="http://www.w3.org/2000/svg">
<g clip-path="url(#clip0_1_4)">
<path d="M600.317 133.333C617.907 133.355 634.771 140.353 647.209 152.791C659.647 165.229 666.645 182.093 666.667 199.683V600.317C666.645 617.907 659.647 634.771 647.209 647.209C634.771 659.647 617.907 666.645 600.317 666.667H199.683C182.093 666.645 165.229 659.647 152.791 647.209C140.353 634.771 133.355 617.907 133.333 600.317V199.683C133.355 182.093 140.353 165.229 152.791 152.791C165.229 140.353 182.093 133.355 199.683 133.333H600.317ZM600.317 66.6667H199.683C182.215 66.6645 164.917 70.1036 148.777 76.7875C132.638 83.4715 117.974 93.2693 105.621 105.621C93.2693 117.974 83.4714 132.638 76.7875 148.777C70.1036 164.917 66.6645 182.215 66.6667 199.683V600.317C66.6645 617.785 70.1036 635.083 76.7875 651.223C83.4714 667.362 93.2693 682.026 105.621 694.379C117.974 706.731 132.638 716.529 148.777 723.212C164.917 729.896 182.215 733.336 199.683 733.333H600.317C617.785 733.336 635.083 729.896 651.223 723.212C667.362 716.529 682.026 706.731 694.379 694.379C706.731 682.026 716.529 667.362 723.212 651.223C729.896 635.083 733.336 617.785 733.333 600.317V199.683C733.336 182.215 729.896 164.917 723.212 148.777C716.529 132.638 706.731 117.974 694.379 105.621C682.026 93.2693 667.362 83.4715 651.223 76.7875C635.083 70.1036 617.785 66.6645 600.317 66.6667V66.6667Z" fill="white"/>
<path d="M400 566.667C308.1 566.667 233.333 491.9 233.333 400C233.333 308.1 308.1 233.333 400 233.333C491.9 233.333 566.667 308.1 566.667 400C566.667 491.9 491.9 566.667 400 566.667ZM400 300C344.85 300 300 344.85 300 400C300 455.15 344.85 500 400 500C455.15 500 500 455.15 500 400C500 344.85 455.15 300 400 300Z" fill="white"/>
<path d="M583.333 250C601.743 250 616.667 235.076 616.667 216.667C616.667 198.257 601.743 183.333 583.333 183.333C564.924 183.333 550 198.257 550 216.667C550 235.076 564.924 250 583.333 250Z" fill="white"/>
</g>
<defs>
<clipPath id="clip0_1_4">
<rect width="800" height="800" fill="white"/>
</clipPath>
</defs>
</svg>
