<svg width="510" height="354" viewBox="0 0 510 354" fill="none" xmlns="http://www.w3.org/2000/svg">
<path d="M6.144 138V48.4H42.624C46.8053 49.936 50.5173 52.624 53.76 56.464C57.0027 60.304 58.624 64.9547 58.624 70.416C58.624 80.0587 55.4667 86.8 49.152 90.64V91.152C57.0027 95.504 60.928 102.331 60.928 111.632C60.928 122.299 55.5093 131.088 44.672 138H6.144ZM23.552 85.392H36.224C39.9787 83.088 41.856 79.5893 41.856 74.896C41.856 70.2027 40.1067 66.4907 36.608 63.76H23.552V85.392ZM23.552 123.152H36.736C38.272 122.043 39.6373 120.293 40.832 117.904C42.112 115.515 42.752 113.125 42.752 110.736C42.752 108.347 42.24 106.171 41.216 104.208C40.192 102.245 38.912 100.795 37.376 99.856H23.552V123.152ZM163.453 123.152H174.205C176.082 121.104 177.405 119.056 178.173 117.008C179.026 114.875 179.453 111.76 179.453 107.664V48.4H196.989V101.264C196.989 105.616 196.861 109.029 196.605 111.504C196.434 113.893 195.922 116.837 195.069 120.336C193.618 126.565 189.608 132.453 183.037 138H154.621C148.05 132.624 144.04 126.736 142.589 120.336C141.309 115.131 140.669 108.773 140.669 101.264V48.4H158.205V107.664C158.205 111.76 158.589 114.875 159.357 117.008C160.21 119.056 161.576 121.104 163.453 123.152ZM279.724 138V48.4H297.26V123.152H323.884V138H279.724ZM403.639 138V48.4H421.175V86.16H421.815L437.815 48.4H455.863L437.175 91.152L456.759 138H437.303L422.071 98.832H421.175V138H403.639Z" fill="white"/>
<path d="M178.051 238.621H200.579V253.469H168.067C162.435 248.178 158.168 241.479 155.267 233.373C152.365 225.266 150.915 216.946 150.915 208.413C150.915 199.794 152.536 191.517 155.779 183.581C159.021 175.645 163.843 169.074 170.243 163.869H200.579V179.229H178.051C175.747 181.874 173.741 186.141 172.035 192.029C170.413 197.917 169.603 203.549 169.603 208.925C169.603 214.301 170.413 219.933 172.035 225.821C173.741 231.709 175.747 235.975 178.051 238.621ZM303.153 238.621H313.905C315.782 236.573 317.105 234.525 317.873 232.477C318.726 230.343 319.153 227.229 319.153 223.133V163.869H336.689V216.733C336.689 221.085 336.561 224.498 336.305 226.973C336.134 229.362 335.622 232.306 334.769 235.805C333.318 242.034 329.307 247.922 322.737 253.469H294.321C287.75 248.093 283.739 242.205 282.289 235.805C281.009 230.599 280.369 224.242 280.369 216.733V163.869H297.905V223.133C297.905 227.229 298.289 230.343 299.057 232.477C299.91 234.525 301.275 236.573 303.153 238.621ZM433.888 179.229H414.56V163.869H470.624V179.229H451.296V253.469H433.888V179.229Z" fill="white"/>
<path d="M47.456 200.584L46.208 197.704C44.864 195.08 44.192 192.264 44.192 189.256C44.192 183.752 46.464 180.04 51.008 178.12H66.464V189.64H56.576L56.384 190.216L73.28 230.344V241H46.592C42.944 239.592 40.064 237.16 37.952 233.704C35.904 230.248 34.88 226.408 34.88 222.184C34.88 217.96 35.936 213.96 38.048 210.184C40.16 206.344 43.296 203.144 47.456 200.584ZM52.16 210.856C48.64 213.864 46.88 217.352 46.88 221.32C46.88 225.224 48.128 228.232 50.624 230.344H60.704L52.16 210.856Z" fill="white"/>
</svg>
