<svg width="455" height="215" viewBox="0 0 455 215" fill="none" xmlns="http://www.w3.org/2000/svg">
<path d="M4.144 90V0.399994H40.624C44.8053 1.93599 48.5173 4.624 51.76 8.464C55.0027 12.304 56.624 16.9547 56.624 22.416C56.624 32.0587 53.4667 38.8 47.152 42.64V43.152C55.0027 47.504 58.928 54.3307 58.928 63.632C58.928 74.2987 53.5093 83.088 42.672 90H4.144ZM21.552 37.392H34.224C37.9787 35.088 39.856 31.5893 39.856 26.896C39.856 22.2027 38.1067 18.4907 34.608 15.76H21.552V37.392ZM21.552 75.152H34.736C36.272 74.0427 37.6373 72.2933 38.832 69.904C40.112 67.5147 40.752 65.1253 40.752 62.736C40.752 60.3467 40.24 58.1707 39.216 56.208C38.192 54.2453 36.912 52.7947 35.376 51.856H21.552V75.152Z" fill="white"/>
<path d="M161.453 75.152H172.205C174.082 73.104 175.405 71.056 176.173 69.008C177.026 66.8747 177.453 63.76 177.453 59.664V0.399994H194.989V53.264C194.989 57.616 194.861 61.0293 194.605 63.504C194.434 65.8933 193.922 68.8373 193.069 72.336C191.618 78.5653 187.608 84.4533 181.037 90H152.621C146.05 84.624 142.04 78.736 140.589 72.336C139.309 67.1307 138.669 60.7733 138.669 53.264V0.399994H156.205V59.664C156.205 63.76 156.589 66.8747 157.357 69.008C158.21 71.056 159.576 73.104 161.453 75.152Z" fill="white"/>
<path d="M277.724 90V0.399994H295.26V75.152H321.884V90H277.724Z" fill="white"/>
<path d="M401.639 90V0.399994H419.175V38.16H419.815L435.815 0.399994H453.863L435.175 43.152L454.759 90H435.303L420.071 50.832H419.175V90H401.639Z" fill="white"/>
<path d="M160.976 200.152H183.504V215H150.992C145.36 209.709 141.093 203.011 138.192 194.904C135.291 186.797 133.84 178.477 133.84 169.944C133.84 161.325 135.461 153.048 138.704 145.112C141.947 137.176 146.768 130.605 153.168 125.4H183.504V140.76H160.976C158.672 143.405 156.667 147.672 154.96 153.56C153.339 159.448 152.528 165.08 152.528 170.456C152.528 175.832 153.339 181.464 154.96 187.352C156.667 193.24 158.672 197.507 160.976 200.152Z" fill="white"/>
<path d="M286.078 200.152H296.83C298.707 198.104 300.03 196.056 300.798 194.008C301.651 191.875 302.078 188.76 302.078 184.664V125.4H319.614V178.264C319.614 182.616 319.486 186.029 319.23 188.504C319.059 190.893 318.547 193.837 317.694 197.336C316.243 203.565 312.233 209.453 305.662 215H277.246C270.675 209.624 266.665 203.736 265.214 197.336C263.934 192.131 263.294 185.773 263.294 178.264V125.4H280.83V184.664C280.83 188.76 281.214 191.875 281.982 194.008C282.835 196.056 284.201 198.104 286.078 200.152Z" fill="white"/>
<path d="M416.813 140.76H397.485V125.4H453.549V140.76H434.221V215H416.813V140.76Z" fill="white"/>
<path d="M13.456 169.584L12.208 166.704C10.864 164.08 10.192 161.264 10.192 158.256C10.192 152.752 12.464 149.04 17.008 147.12H32.464V158.64H22.576L22.384 159.216L39.28 199.344V210H12.592C8.94401 208.592 6.06401 206.16 3.952 202.704C1.904 199.248 0.880005 195.408 0.880005 191.184C0.880005 186.96 1.936 182.96 4.048 179.184C6.16 175.344 9.29601 172.144 13.456 169.584ZM18.16 179.856C14.64 182.864 12.88 186.352 12.88 190.32C12.88 194.224 14.128 197.232 16.624 199.344H26.704L18.16 179.856Z" fill="white"/>
</svg>
